OstrichSans-Bold.ufo
<glyph name="parenleft" format="1">
  <advance width="206"/>
  <unicode hex="0028"/>
  <outline>
    <contour>
      <point x="130" y="38" type="line"/>
      <point x="111" y="8" type="line"/>
      <point x="107" y="11"/>
      <point x="99" y="18"/>
      <point x="87" y="30" type="curve"/>
      <point x="75" y="41"/>
      <point x="62" y="61"/>
      <point x="49" y="89" type="curve" smooth="yes"/>
      <point x="16" y="156"/>
      <point x="0" y="249"/>
      <point x="0" y="368" type="curve" smooth="yes"/>
      <point x="0" y="486"/>
      <point x="16" y="580"/>
      <point x="48" y="650" type="curve" smooth="yes"/>
      <point x="61" y="678"/>
      <point x="74" y="698"/>
      <point x="86" y="710" type="curve"/>
      <point x="98" y="721"/>
      <point x="106" y="728"/>
      <point x="110" y="731" type="curve"/>
      <point x="129" y="702" type="line"/>
      <point x="128" y="701"/>
      <point x="122" y="696"/>
      <point x="113" y="687" type="curve" smooth="yes"/>
      <point x="103" y="677"/>
      <point x="92" y="660"/>
      <point x="81" y="635" type="curve"/>
      <point x="57" y="586"/>
      <point x="35" y="503"/>
      <point x="35" y="368" type="curve" smooth="yes"/>
      <point x="35" y="233"/>
      <point x="58" y="152"/>
      <point x="81" y="104" type="curve" smooth="yes"/>
      <point x="92" y="79"/>
      <point x="103" y="63"/>
      <point x="113" y="54" type="curve" smooth="yes"/>
      <point x="123" y="45"/>
      <point x="128" y="40"/>
      <point x="129" y="39" type="curve" smooth="yes"/>
    </contour>
    <contour>
      <point x="94" y="260"/>
      <point x="110" y="191"/>
      <point x="126" y="149" type="curve" smooth="yes"/>
      <point x="134" y="128"/>
      <point x="142" y="113"/>
      <point x="149" y="104" type="curve" smooth="yes"/>
      <point x="156" y="95"/>
      <point x="161" y="89"/>
      <point x="162" y="88" type="curve"/>
      <point x="143" y="58" type="line"/>
      <point x="142" y="59" type="line"/>
      <point x="134" y="64"/>
      <point x="125" y="74"/>
      <point x="116" y="89" type="curve"/>
      <point x="111" y="96"/>
      <point x="106" y="106"/>
      <point x="101" y="117" type="curve" smooth="yes"/>
      <point x="82" y="158"/>
      <point x="59" y="236"/>
      <point x="59" y="368" type="curve" smooth="yes"/>
      <point x="59" y="501"/>
      <point x="82" y="579"/>
      <point x="101" y="622" type="curve" smooth="yes"/>
      <point x="110" y="643"/>
      <point x="120" y="659"/>
      <point x="129" y="669" type="curve"/>
      <point x="134" y="674"/>
      <point x="138" y="679"/>
      <point x="142" y="682" type="curve"/>
      <point x="161" y="652" type="line"/>
      <point x="161" y="652"/>
      <point x="162" y="652"/>
      <point x="163" y="653" type="curve"/>
      <point x="163" y="653"/>
      <point x="159" y="649"/>
      <point x="152" y="641" type="curve"/>
      <point x="145" y="632"/>
      <point x="137" y="617"/>
      <point x="128" y="596" type="curve" smooth="yes"/>
      <point x="111" y="553"/>
      <point x="94" y="483"/>
      <point x="94" y="368" type="curve" smooth="yes"/>
    </contour>
  </outline>
</glyph>
<glyph name="comma" format="1">
  <advance width="158"/>
  <unicode hex="002C"/>
  <outline>
    <contour>
      <point x="0" y="107" type="line"/>
      <point x="94" y="107" type="line"/>
      <point x="94" y="-86" type="line"/>
      <point x="0" y="4" type="line"/>
    </contour>
    <contour>
      <point x="59" y="0" type="line"/>
      <point x="59" y="71" type="line"/>
      <point x="35" y="71" type="line"/>
      <point x="35" y="22" type="line"/>
    </contour>
  </outline>
</glyph>
<glyph name="period" format="1">
  <advance width="186"/>
  <unicode hex="002E"/>
  <outline>
    <contour>
      <point x="0" y="107" type="line"/>
      <point x="94" y="107" type="line"/>
      <point x="94" y="1" type="line"/>
      <point x="0" y="1" type="line"/>
    </contour>
    <contour>
      <point x="59" y="36" type="line"/>
      <point x="59" y="71" type="line"/>
      <point x="35" y="71" type="line"/>
      <point x="35" y="36" type="line"/>
    </contour>
  </outline>
</glyph>
<glyph name="one" format="1">
  <advance width="275"/>
  <unicode hex="0031"/>
  <outline>
    <contour>
      <point x="73" y="506" type="line"/>
      <point x="48" y="526" type="line"/>
      <point x="150" y="675" type="line"/>
      <point x="150" y="-2" type="line"/>
      <point x="115" y="-2" type="line"/>
      <point x="115" y="563" type="line"/>
    </contour>
    <contour>
      <point x="197" y="735" type="line"/>
      <point x="209" y="735" type="line"/>
      <point x="209" y="-2" type="line"/>
      <point x="174" y="-2" type="line"/>
      <point x="174" y="707" type="line"/>
      <point x="144" y="707" type="line"/>
      <point x="30" y="541" type="line"/>
      <point x="0" y="566" type="line"/>
      <point x="118" y="735" type="line"/>
      <point x="134" y="735" type="line"/>
      <point x="163" y="735" type="line"/>
      <point x="174" y="735" type="line"/>
    </contour>
  </outline>
</glyph>
<glyph name="five" format="1">
  <advance width="372"/>
  <unicode hex="0035"/>
  <outline>
    <contour>
      <point x="94" y="259" type="line"/>
      <point x="0" y="259" type="line"/>
      <point x="0" y="261" type="line"/>
      <point x="0" y="292" type="line"/>
      <point x="0" y="735" type="line"/>
      <point x="94" y="735" type="line"/>
      <point x="313" y="735" type="line"/>
      <point x="313" y="699" type="line"/>
      <point x="59" y="699" type="line"/>
      <point x="35" y="699" type="line"/>
      <point x="35" y="296" type="line"/>
      <point x="35" y="292" type="line"/>
      <point x="59" y="292" type="line"/>
      <point x="59" y="316"/>
      <point x="63" y="349"/>
      <point x="76" y="375" type="curve" smooth="yes"/>
      <point x="89" y="401"/>
      <point x="113" y="421"/>
      <point x="156" y="421" type="curve" smooth="yes"/>
      <point x="221" y="421"/>
      <point x="253" y="373"/>
      <point x="253" y="276" type="curve" smooth="yes"/>
      <point x="253" y="205" type="line" smooth="yes"/>
      <point x="253" y="118"/>
      <point x="216" y="57"/>
      <point x="156" y="57" type="curve" smooth="yes"/>
      <point x="124" y="57"/>
      <point x="100" y="71"/>
      <point x="84" y="90" type="curve" smooth="yes"/>
      <point x="68" y="109"/>
      <point x="59" y="134"/>
      <point x="59" y="154" type="curve" smooth="yes"/>
      <point x="59" y="170" type="line"/>
      <point x="94" y="170" type="line"/>
      <point x="94" y="154" type="line" smooth="yes"/>
      <point x="94" y="146"/>
      <point x="98" y="130"/>
      <point x="108" y="117" type="curve" smooth="yes"/>
      <point x="118" y="104"/>
      <point x="132" y="92"/>
      <point x="156" y="92" type="curve" smooth="yes"/>
      <point x="180" y="92"/>
      <point x="196" y="109"/>
      <point x="205" y="133" type="curve" smooth="yes"/>
      <point x="214" y="156"/>
      <point x="218" y="184"/>
      <point x="218" y="205" type="curve" smooth="yes"/>
      <point x="218" y="276" type="line" smooth="yes"/>
      <point x="218" y="303"/>
      <point x="216" y="323"/>
      <point x="212" y="337" type="curve" smooth="yes"/>
      <point x="204" y="365"/>
      <point x="197" y="372"/>
      <point x="185" y="380" type="curve" smooth="yes"/>
      <point x="179" y="384"/>
      <point x="169" y="386"/>
      <point x="156" y="386" type="curve" smooth="yes"/>
      <point x="129" y="386"/>
      <point x="120" y="375"/>
      <point x="113" y="367" type="curve"/>
      <point x="100" y="350"/>
      <point x="94" y="325"/>
      <point x="94" y="292" type="curve" smooth="yes"/>
      <point x="94" y="261" type="line"/>
    </contour>
    <contour>
      <point x="94" y="640" type="line"/>
      <point x="94" y="469" type="line"/>
      <point x="114" y="476"/>
      <point x="135" y="480"/>
      <point x="156" y="480" type="curve" smooth="yes"/>
      <point x="221" y="480"/>
      <point x="258" y="448"/>
      <point x="277" y="421" type="curve" smooth="yes"/>
      <point x="301" y="387"/>
      <point x="313" y="339"/>
      <point x="313" y="276" type="curve" smooth="yes"/>
      <point x="313" y="205" type="line" smooth="yes"/>
      <point x="313" y="96"/>
      <point x="261" y="-2"/>
      <point x="156" y="-2" type="curve" smooth="yes"/>
      <point x="109" y="-2"/>
      <point x="68" y="17"/>
      <point x="39" y="52" type="curve" smooth="yes"/>
      <point x="14" y="81"/>
      <point x="0" y="119"/>
      <point x="0" y="154" type="curve" smooth="yes"/>
      <point x="0" y="170" type="line"/>
      <point x="35" y="170" type="line"/>
      <point x="35" y="154" type="line" smooth="yes"/>
      <point x="35" y="127"/>
      <point x="47" y="98"/>
      <point x="66" y="75" type="curve" smooth="yes"/>
      <point x="90" y="47"/>
      <point x="120" y="33"/>
      <point x="156" y="33" type="curve" smooth="yes"/>
      <point x="195" y="33"/>
      <point x="226" y="51"/>
      <point x="248" y="86" type="curve" smooth="yes"/>
      <point x="267" y="117"/>
      <point x="277" y="158"/>
      <point x="277" y="205" type="curve" smooth="yes"/>
      <point x="277" y="276" type="line" smooth="yes"/>
      <point x="277" y="385"/>
      <point x="236" y="445"/>
      <point x="156" y="445" type="curve" smooth="yes"/>
      <point x="117" y="445"/>
      <point x="86" y="431"/>
      <point x="65" y="402" type="curve"/>
      <point x="59" y="393" type="line"/>
      <point x="59" y="676" type="line"/>
      <point x="313" y="676" type="line"/>
      <point x="313" y="640" type="line"/>
    </contour>
  </outline>
</glyph>
<glyph name="six" format="1">
  <advance width="368"/>
  <unicode hex="0036"/>
  <outline>
    <contour>
      <point x="35" y="284" type="line"/>
      <point x="35" y="282" type="line"/>
      <point x="35" y="187" type="line" smooth="yes"/>
      <point x="35" y="91"/>
      <point x="80" y="33"/>
      <point x="156" y="33" type="curve" smooth="yes"/>
      <point x="195" y="33"/>
      <point x="225" y="51"/>
      <point x="248" y="87" type="curve" smooth="yes"/>
      <point x="267" y="118"/>
      <point x="277" y="161"/>
      <point x="277" y="209" type="curve" smooth="yes"/>
      <point x="277" y="282" type="line" smooth="yes"/>
      <point x="277" y="338"/>
      <point x="267" y="381"/>
      <point x="248" y="410" type="curve"/>
      <point x="227" y="439"/>
      <point x="196" y="454"/>
      <point x="156" y="454" type="curve" smooth="yes"/>
      <point x="113" y="454"/>
      <point x="81" y="433"/>
      <point x="59" y="392" type="curve"/>
      <point x="59" y="483" type="line" smooth="yes"/>
      <point x="59" y="519"/>
      <point x="63" y="567"/>
      <point x="76" y="607" type="curve" smooth="yes"/>
      <point x="89" y="646"/>
      <point x="113" y="676"/>
      <point x="156" y="676" type="curve" smooth="yes"/>
      <point x="220" y="676"/>
      <point x="253" y="632"/>
      <point x="253" y="549" type="curve" smooth="yes"/>
      <point x="253" y="518" type="line"/>
      <point x="218" y="518" type="line"/>
      <point x="218" y="549" type="line" smooth="yes"/>
      <point x="218" y="582"/>
      <point x="212" y="606"/>
      <point x="200" y="621" type="curve" smooth="yes"/>
      <point x="193" y="630"/>
      <point x="183" y="640"/>
      <point x="156" y="640" type="curve" smooth="yes"/>
      <point x="128" y="640"/>
      <point x="113" y="612"/>
      <point x="105" y="579" type="curve" smooth="yes"/>
      <point x="96" y="546"/>
      <point x="94" y="507"/>
      <point x="94" y="483" type="curve" smooth="yes"/>
      <point x="94" y="476" type="line"/>
      <point x="114" y="485"/>
      <point x="135" y="490"/>
      <point x="156" y="490" type="curve" smooth="yes"/>
      <point x="261" y="490"/>
      <point x="313" y="407"/>
      <point x="313" y="282" type="curve" smooth="yes"/>
      <point x="313" y="209" type="line" smooth="yes"/>
      <point x="313" y="145"/>
      <point x="297" y="93"/>
      <point x="270" y="56" type="curve" smooth="yes"/>
      <point x="242" y="19"/>
      <point x="203" y="-2"/>
      <point x="156" y="-2" type="curve" smooth="yes"/>
      <point x="55" y="-2"/>
      <point x="0" y="78"/>
      <point x="0" y="187" type="curve" smooth="yes"/>
      <point x="0" y="282" type="line"/>
      <point x="0" y="284" type="line"/>
      <point x="0" y="483" type="line" smooth="yes"/>
      <point x="0" y="556"/>
      <point x="11" y="614"/>
      <point x="33" y="656" type="curve" smooth="yes"/>
      <point x="60" y="707"/>
      <point x="103" y="735"/>
      <point x="156" y="735" type="curve" smooth="yes"/>
      <point x="259" y="735"/>
      <point x="313" y="656"/>
      <point x="313" y="549" type="curve" smooth="yes"/>
      <point x="313" y="518" type="line"/>
      <point x="277" y="518" type="line"/>
      <point x="277" y="549" type="line" smooth="yes"/>
      <point x="277" y="641"/>
      <point x="235" y="699"/>
      <point x="156" y="699" type="curve" smooth="yes"/>
      <point x="75" y="699"/>
      <point x="35" y="616"/>
      <point x="35" y="483" type="curve" smooth="yes"/>
    </contour>
    <contour>
      <point x="93" y="57"/>
      <point x="59" y="104"/>
      <point x="59" y="187" type="curve" smooth="yes"/>
      <point x="59" y="283" type="line" smooth="yes"/>
      <point x="59" y="371"/>
      <point x="95" y="431"/>
      <point x="156" y="431" type="curve" smooth="yes"/>
      <point x="221" y="431"/>
      <point x="253" y="381"/>
      <point x="253" y="282" type="curve" smooth="yes"/>
      <point x="253" y="209" type="line" smooth="yes"/>
      <point x="253" y="120"/>
      <point x="216" y="57"/>
      <point x="156" y="57" type="curve" smooth="yes"/>
    </contour>
    <contour>
      <point x="127" y="395"/>
      <point x="112" y="371"/>
      <point x="104" y="345" type="curve" smooth="yes"/>
      <point x="96" y="319"/>
      <point x="94" y="291"/>
      <point x="94" y="283" type="curve" smooth="yes"/>
      <point x="94" y="187" type="line" smooth="yes"/>
      <point x="94" y="154"/>
      <point x="100" y="129"/>
      <point x="113" y="112" type="curve" smooth="yes"/>
      <point x="120" y="103"/>
      <point x="129" y="92"/>
      <point x="156" y="92" type="curve" smooth="yes"/>
      <point x="180" y="92"/>
      <point x="196" y="110"/>
      <point x="205" y="134" type="curve" smooth="yes"/>
      <point x="214" y="158"/>
      <point x="218" y="186"/>
      <point x="218" y="209" type="curve" smooth="yes"/>
      <point x="218" y="282" type="line" smooth="yes"/>
      <point x="218" y="310"/>
      <point x="216" y="332"/>
      <point x="211" y="347" type="curve"/>
      <point x="202" y="378"/>
      <point x="189" y="390"/>
      <point x="174" y="393" type="curve"/>
      <point x="167" y="394"/>
      <point x="161" y="395"/>
      <point x="156" y="395" type="curve" smooth="yes"/>
    </contour>
  </outline>
</glyph>
<glyph name="seven" format="1">
  <advance width="429"/>
  <unicode hex="0037"/>
  <outline>
    <contour>
      <point x="271" y="676" type="line"/>
      <point x="336" y="676" type="line"/>
      <point x="53" y="-2" type="line"/>
      <point x="12" y="-2" type="line"/>
      <point x="283" y="640" type="line"/>
      <point x="0" y="640" type="line"/>
      <point x="0" y="676" type="line"/>
    </contour>
    <contour>
      <point x="387" y="735" type="line"/>
      <point x="387" y="645" type="line"/>
      <point x="387" y="645" type="line"/>
      <point x="387" y="640" type="line"/>
      <point x="385" y="640" type="line"/>
      <point x="115" y="-2" type="line"/>
      <point x="79" y="-2" type="line"/>
      <point x="359" y="670" type="line"/>
      <point x="359" y="699" type="line"/>
      <point x="0" y="699" type="line"/>
      <point x="0" y="735" type="line"/>
    </contour>
  </outline>
</glyph>
<glyph name="eight" format="1">
  <advance width="388"/>
  <unicode hex="0038"/>
  <outline>
    <contour>
      <point x="275" y="423"/>
      <point x="243" y="378"/>
      <point x="167" y="378" type="curve" smooth="yes"/>
      <point x="91" y="378"/>
      <point x="59" y="423"/>
      <point x="59" y="527" type="curve" smooth="yes"/>
      <point x="59" y="631"/>
      <point x="91" y="676"/>
      <point x="167" y="676" type="curve" smooth="yes"/>
      <point x="243" y="676"/>
      <point x="275" y="631"/>
      <point x="275" y="527" type="curve" smooth="yes"/>
    </contour>
    <contour>
      <point x="94" y="471"/>
      <point x="105" y="443"/>
      <point x="119" y="429" type="curve" smooth="yes"/>
      <point x="133" y="415"/>
      <point x="151" y="414"/>
      <point x="167" y="414" type="curve" smooth="yes"/>
      <point x="183" y="414"/>
      <point x="201" y="415"/>
      <point x="215" y="429" type="curve" smooth="yes"/>
      <point x="229" y="443"/>
      <point x="239" y="471"/>
      <point x="239" y="527" type="curve" smooth="yes"/>
      <point x="239" y="583"/>
      <point x="229" y="612"/>
      <point x="215" y="626" type="curve" smooth="yes"/>
      <point x="201" y="640"/>
      <point x="183" y="640"/>
      <point x="167" y="640" type="curve" smooth="yes"/>
      <point x="151" y="640"/>
      <point x="133" y="640"/>
      <point x="119" y="626" type="curve" smooth="yes"/>
      <point x="105" y="612"/>
      <point x="94" y="583"/>
      <point x="94" y="527" type="curve" smooth="yes"/>
    </contour>
    <contour>
      <point x="287" y="366" type="line"/>
      <point x="289" y="364"/>
      <point x="292" y="360"/>
      <point x="296" y="355" type="curve"/>
      <point x="321" y="320"/>
      <point x="334" y="270"/>
      <point x="334" y="205" type="curve" smooth="yes"/>
      <point x="334" y="76"/>
      <point x="282" y="-2"/>
      <point x="167" y="-2" type="curve" smooth="yes"/>
      <point x="51" y="-2"/>
      <point x="0" y="73"/>
      <point x="0" y="205" type="curve" smooth="yes"/>
      <point x="0" y="271"/>
      <point x="13" y="321"/>
      <point x="38" y="355" type="curve" smooth="yes"/>
      <point x="41" y="359"/>
      <point x="44" y="363"/>
      <point x="47" y="366" type="curve"/>
      <point x="38" y="378" type="line" smooth="yes"/>
      <point x="13" y="411"/>
      <point x="0" y="461"/>
      <point x="0" y="527" type="curve" smooth="yes"/>
      <point x="0" y="659"/>
      <point x="52" y="735"/>
      <point x="167" y="735" type="curve" smooth="yes"/>
      <point x="280" y="735"/>
      <point x="334" y="656"/>
      <point x="334" y="527" type="curve" smooth="yes"/>
      <point x="334" y="462"/>
      <point x="321" y="413"/>
      <point x="296" y="378" type="curve" smooth="yes"/>
    </contour>
    <contour>
      <point x="256" y="33"/>
      <point x="298" y="88"/>
      <point x="298" y="205" type="curve" smooth="yes"/>
      <point x="298" y="264"/>
      <point x="288" y="307"/>
      <point x="267" y="334" type="curve" smooth="yes"/>
      <point x="256" y="349"/>
      <point x="243" y="359"/>
      <point x="228" y="366" type="curve"/>
      <point x="275" y="387"/>
      <point x="298" y="441"/>
      <point x="298" y="527" type="curve" smooth="yes"/>
      <point x="298" y="646"/>
      <point x="256" y="699"/>
      <point x="167" y="699" type="curve" smooth="yes"/>
      <point x="76" y="699"/>
      <point x="35" y="646"/>
      <point x="35" y="527" type="curve" smooth="yes"/>
      <point x="35" y="442"/>
      <point x="58" y="388"/>
      <point x="105" y="366" type="curve"/>
      <point x="90" y="359"/>
      <point x="77" y="349"/>
      <point x="66" y="334" type="curve" smooth="yes"/>
      <point x="45" y="307"/>
      <point x="35" y="264"/>
      <point x="35" y="205" type="curve" smooth="yes"/>
      <point x="35" y="88"/>
      <point x="76" y="33"/>
      <point x="167" y="33" type="curve" smooth="yes"/>
    </contour>
    <contour>
      <point x="243" y="355"/>
      <point x="275" y="310"/>
      <point x="275" y="205" type="curve" smooth="yes"/>
      <point x="275" y="101"/>
      <point x="243" y="57"/>
      <point x="167" y="57" type="curve" smooth="yes"/>
      <point x="91" y="57"/>
      <point x="59" y="101"/>
      <point x="59" y="205" type="curve" smooth="yes"/>
      <point x="59" y="310"/>
      <point x="91" y="355"/>
      <point x="167" y="355" type="curve" smooth="yes"/>
    </contour>
    <contour>
      <point x="183" y="92"/>
      <point x="201" y="93"/>
      <point x="215" y="107" type="curve" smooth="yes"/>
      <point x="229" y="121"/>
      <point x="239" y="149"/>
      <point x="239" y="205" type="curve" smooth="yes"/>
      <point x="239" y="233"/>
      <point x="237" y="254"/>
      <point x="233" y="269" type="curve" smooth="yes"/>
      <point x="225" y="297"/>
      <point x="219" y="305"/>
      <point x="204" y="313" type="curve" smooth="yes"/>
      <point x="197" y="317"/>
      <point x="184" y="319"/>
      <point x="167" y="319" type="curve" smooth="yes"/>
      <point x="150" y="319"/>
      <point x="137" y="317"/>
      <point x="130" y="313" type="curve" smooth="yes"/>
      <point x="115" y="305"/>
      <point x="109" y="297"/>
      <point x="101" y="269" type="curve"/>
      <point x="96" y="254"/>
      <point x="94" y="233"/>
      <point x="94" y="205" type="curve" smooth="yes"/>
      <point x="94" y="149"/>
      <point x="105" y="121"/>
      <point x="119" y="107" type="curve" smooth="yes"/>
      <point x="133" y="93"/>
      <point x="151" y="92"/>
      <point x="167" y="92" type="curve" smooth="yes"/>
    </contour>
  </outline>
</glyph>
<glyph name="nine" format="1">
  <advance width="368"/>
  <unicode hex="0039"/>
  <outline>
    <contour>
      <point x="313" y="451" type="line"/>
      <point x="313" y="450" type="line"/>
      <point x="313" y="249" type="line" smooth="yes"/>
      <point x="313" y="174"/>
      <point x="301" y="118"/>
      <point x="280" y="75" type="curve"/>
      <point x="252" y="24"/>
      <point x="211" y="-2"/>
      <point x="156" y="-2" type="curve" smooth="yes"/>
      <point x="105" y="-2"/>
      <point x="64" y="18"/>
      <point x="36" y="57" type="curve" smooth="yes"/>
      <point x="12" y="90"/>
      <point x="0" y="135"/>
      <point x="0" y="192" type="curve" smooth="yes"/>
      <point x="0" y="224" type="line"/>
      <point x="35" y="224" type="line"/>
      <point x="35" y="192" type="line" smooth="yes"/>
      <point x="35" y="91"/>
      <point x="79" y="33"/>
      <point x="156" y="33" type="curve" smooth="yes"/>
      <point x="239" y="33"/>
      <point x="277" y="113"/>
      <point x="277" y="249" type="curve" smooth="yes"/>
      <point x="277" y="450" type="line"/>
      <point x="277" y="451" type="line"/>
      <point x="277" y="548" type="line" smooth="yes"/>
      <point x="277" y="644"/>
      <point x="233" y="699"/>
      <point x="156" y="699" type="curve" smooth="yes"/>
      <point x="83" y="699"/>
      <point x="35" y="632"/>
      <point x="35" y="525" type="curve" smooth="yes"/>
      <point x="35" y="451" type="line" smooth="yes"/>
      <point x="35" y="394"/>
      <point x="45" y="351"/>
      <point x="65" y="323" type="curve"/>
      <point x="85" y="292"/>
      <point x="115" y="277"/>
      <point x="156" y="277" type="curve" smooth="yes"/>
      <point x="199" y="277"/>
      <point x="233" y="300"/>
      <point x="253" y="340" type="curve"/>
      <point x="253" y="249" type="line" smooth="yes"/>
      <point x="253" y="205"/>
      <point x="249" y="157"/>
      <point x="235" y="120" type="curve" smooth="yes"/>
      <point x="221" y="83"/>
      <point x="196" y="57"/>
      <point x="156" y="57" type="curve" smooth="yes"/>
      <point x="93" y="57"/>
      <point x="59" y="105"/>
      <point x="59" y="192" type="curve" smooth="yes"/>
      <point x="59" y="224" type="line"/>
      <point x="94" y="224" type="line"/>
      <point x="94" y="192" type="line" smooth="yes"/>
      <point x="94" y="141"/>
      <point x="106" y="117"/>
      <point x="120" y="105" type="curve"/>
      <point x="134" y="92"/>
      <point x="148" y="92"/>
      <point x="156" y="92" type="curve" smooth="yes"/>
      <point x="183" y="92"/>
      <point x="199" y="116"/>
      <point x="208" y="148" type="curve" smooth="yes"/>
      <point x="216" y="180"/>
      <point x="218" y="220"/>
      <point x="218" y="249" type="curve" smooth="yes"/>
      <point x="218" y="256" type="line"/>
      <point x="200" y="247"/>
      <point x="179" y="242"/>
      <point x="156" y="242" type="curve" smooth="yes"/>
      <point x="51" y="242"/>
      <point x="0" y="323"/>
      <point x="0" y="451" type="curve" smooth="yes"/>
      <point x="0" y="525" type="line" smooth="yes"/>
      <point x="0" y="582"/>
      <point x="12" y="628"/>
      <point x="35" y="665" type="curve" smooth="yes"/>
      <point x="63" y="710"/>
      <point x="105" y="735"/>
      <point x="156" y="735" type="curve" smooth="yes"/>
      <point x="207" y="735"/>
      <point x="247" y="716"/>
      <point x="276" y="679" type="curve" smooth="yes"/>
      <point x="301" y="645"/>
      <point x="313" y="601"/>
      <point x="313" y="548" type="curve" smooth="yes"/>
    </contour>
    <contour>
      <point x="188" y="676"/>
      <point x="212" y="665"/>
      <point x="228" y="643" type="curve" smooth="yes"/>
      <point x="245" y="620"/>
      <point x="253" y="588"/>
      <point x="253" y="548" type="curve" smooth="yes"/>
      <point x="253" y="450" type="line" smooth="yes"/>
      <point x="253" y="362"/>
      <point x="217" y="301"/>
      <point x="156" y="301" type="curve" smooth="yes"/>
      <point x="91" y="301"/>
      <point x="59" y="351"/>
      <point x="59" y="451" type="curve" smooth="yes"/>
      <point x="59" y="525" type="line" smooth="yes"/>
      <point x="59" y="616"/>
      <point x="95" y="676"/>
      <point x="156" y="676" type="curve" smooth="yes"/>
    </contour>
    <contour>
      <point x="218" y="548" type="line" smooth="yes"/>
      <point x="218" y="593"/>
      <point x="206" y="617"/>
      <point x="193" y="629" type="curve"/>
      <point x="180" y="640"/>
      <point x="164" y="640"/>
      <point x="156" y="640" type="curve" smooth="yes"/>
      <point x="125" y="640"/>
      <point x="110" y="614"/>
      <point x="102" y="587" type="curve" smooth="yes"/>
      <point x="94" y="560"/>
      <point x="94" y="530"/>
      <point x="94" y="525" type="curve" smooth="yes"/>
      <point x="94" y="451" type="line" smooth="yes"/>
      <point x="94" y="422"/>
      <point x="96" y="400"/>
      <point x="101" y="385" type="curve"/>
      <point x="110" y="353"/>
      <point x="124" y="341"/>
      <point x="138" y="338" type="curve"/>
      <point x="145" y="337"/>
      <point x="151" y="336"/>
      <point x="156" y="336" type="curve" smooth="yes"/>
      <point x="185" y="336"/>
      <point x="201" y="360"/>
      <point x="209" y="387" type="curve" smooth="yes"/>
      <point x="217" y="414"/>
      <point x="218" y="442"/>
      <point x="218" y="450" type="curve" smooth="yes"/>
    </contour>
  </outline>
</glyph>
<glyph name="D" format="1">
  <advance width="392"/>
  <unicode hex="0044"/>
  <outline>
    <contour>
      <point x="35" y="59" type="line"/>
      <point x="0" y="59" type="line"/>
      <point x="0" y="678" type="line"/>
      <point x="35" y="678" type="line"/>
    </contour>
    <contour>
      <point x="319" y="642"/>
      <point x="334" y="590"/>
      <point x="334" y="523" type="curve" smooth="yes"/>
      <point x="334" y="213" type="line" smooth="yes"/>
      <point x="334" y="78"/>
      <point x="274" y="0"/>
      <point x="147" y="0" type="curve" smooth="yes"/>
      <point x="0" y="0" type="line"/>
      <point x="0" y="35" type="line"/>
      <point x="35" y="35" type="line"/>
      <point x="47" y="35" type="line"/>
      <point x="147" y="35" type="line" smooth="yes"/>
      <point x="198" y="35"/>
      <point x="236" y="50"/>
      <point x="263" y="81" type="curve"/>
      <point x="287" y="111"/>
      <point x="299" y="155"/>
      <point x="299" y="213" type="curve" smooth="yes"/>
      <point x="299" y="523" type="line" smooth="yes"/>
      <point x="299" y="639"/>
      <point x="250" y="701"/>
      <point x="147" y="701" type="curve" smooth="yes"/>
      <point x="47" y="701" type="line"/>
      <point x="35" y="701" type="line"/>
      <point x="0" y="701" type="line"/>
      <point x="0" y="737" type="line"/>
      <point x="147" y="737" type="line" smooth="yes"/>
      <point x="210" y="737"/>
      <point x="258" y="717"/>
      <point x="290" y="677" type="curve" smooth="yes"/>
    </contour>
    <contour>
      <point x="224" y="71"/>
      <point x="192" y="59"/>
      <point x="147" y="59" type="curve" smooth="yes"/>
      <point x="59" y="59" type="line"/>
      <point x="59" y="678" type="line"/>
      <point x="147" y="678" type="line" smooth="yes"/>
      <point x="192" y="678"/>
      <point x="225" y="665"/>
      <point x="244" y="640" type="curve"/>
      <point x="265" y="615"/>
      <point x="275" y="576"/>
      <point x="275" y="523" type="curve" smooth="yes"/>
      <point x="275" y="213" type="line" smooth="yes"/>
      <point x="275" y="160"/>
      <point x="265" y="121"/>
      <point x="244" y="96" type="curve" smooth="yes"/>
    </contour>
    <contour>
      <point x="94" y="94" type="line"/>
      <point x="147" y="94" type="line" smooth="yes"/>
      <point x="171" y="94"/>
      <point x="194" y="96"/>
      <point x="211" y="112" type="curve" smooth="yes"/>
      <point x="227" y="128"/>
      <point x="239" y="158"/>
      <point x="239" y="213" type="curve" smooth="yes"/>
      <point x="239" y="523" type="line" smooth="yes"/>
      <point x="239" y="578"/>
      <point x="227" y="608"/>
      <point x="211" y="624" type="curve" smooth="yes"/>
      <point x="194" y="640"/>
      <point x="171" y="642"/>
      <point x="147" y="642" type="curve" smooth="yes"/>
      <point x="94" y="642" type="line"/>
    </contour>
  </outline>
</glyph>
<glyph name="L" format="1">
  <advance width="356"/>
  <unicode hex="004C"/>
  <outline>
    <contour>
      <point x="59" y="738" type="line"/>
      <point x="94" y="738" type="line"/>
      <point x="94" y="95" type="line"/>
      <point x="321" y="95" type="line"/>
      <point x="321" y="60" type="line"/>
      <point x="59" y="60" type="line"/>
    </contour>
    <contour>
      <point x="35" y="36" type="line"/>
      <point x="321" y="36" type="line"/>
      <point x="321" y="1" type="line"/>
      <point x="0" y="1" type="line"/>
      <point x="0" y="738" type="line"/>
      <point x="35" y="738" type="line"/>
    </contour>
  </outline>
</glyph>
<glyph name="Q" format="1">
  <advance width="405"/>
  <unicode hex="0051"/>
  <outline>
    <contour>
      <point x="345" y="-45" type="line"/>
      <point x="296" y="-45" type="line"/>
      <point x="248" y="14" type="line"/>
      <point x="227" y="5"/>
      <point x="203" y="0"/>
      <point x="175" y="0" type="curve" smooth="yes"/>
      <point x="103" y="0"/>
      <point x="63" y="33"/>
      <point x="42" y="61" type="curve" smooth="yes"/>
      <point x="14" y="97"/>
      <point x="0" y="148"/>
      <point x="0" y="214" type="curve" smooth="yes"/>
      <point x="0" y="530" type="line" smooth="yes"/>
      <point x="0" y="619"/>
      <point x="27" y="672"/>
      <point x="63" y="701" type="curve" smooth="yes"/>
      <point x="98" y="730"/>
      <point x="142" y="737"/>
      <point x="175" y="737" type="curve" smooth="yes"/>
      <point x="207" y="737"/>
      <point x="251" y="730"/>
      <point x="287" y="701" type="curve" smooth="yes"/>
      <point x="323" y="672"/>
      <point x="350" y="619"/>
      <point x="350" y="530" type="curve" smooth="yes"/>
      <point x="350" y="214" type="line" smooth="yes"/>
      <point x="350" y="158"/>
      <point x="339" y="112"/>
      <point x="318" y="77" type="curve"/>
      <point x="419" y="-45" type="line"/>
      <point x="376" y="-45" type="line"/>
      <point x="275" y="77" type="line"/>
      <point x="276" y="78"/>
      <point x="277" y="78"/>
      <point x="278" y="79" type="curve"/>
      <point x="278" y="80"/>
      <point x="279" y="81"/>
      <point x="280" y="82" type="curve"/>
      <point x="303" y="114"/>
      <point x="314" y="158"/>
      <point x="314" y="214" type="curve" smooth="yes"/>
      <point x="314" y="530" type="line" smooth="yes"/>
      <point x="314" y="644"/>
      <point x="268" y="701"/>
      <point x="175" y="701" type="curve" smooth="yes"/>
      <point x="82" y="701"/>
      <point x="35" y="644"/>
      <point x="35" y="530" type="curve" smooth="yes"/>
      <point x="35" y="214" type="line" smooth="yes"/>
      <point x="35" y="101"/>
      <point x="83" y="35"/>
      <point x="175" y="35" type="curve" smooth="yes"/>
      <point x="208" y="35"/>
      <point x="235" y="43"/>
      <point x="258" y="60" type="curve"/>
    </contour>
    <contour>
      <point x="250" y="156" type="line"/>
      <point x="253" y="171"/>
      <point x="255" y="194"/>
      <point x="255" y="214" type="curve" smooth="yes"/>
      <point x="255" y="530" type="line" smooth="yes"/>
      <point x="255" y="582"/>
      <point x="245" y="610"/>
      <point x="230" y="625" type="curve" smooth="yes"/>
      <point x="214" y="640"/>
      <point x="195" y="642"/>
      <point x="175" y="642" type="curve" smooth="yes"/>
      <point x="155" y="642"/>
      <point x="135" y="640"/>
      <point x="120" y="625" type="curve" smooth="yes"/>
      <point x="104" y="610"/>
      <point x="94" y="582"/>
      <point x="94" y="530" type="curve" smooth="yes"/>
      <point x="94" y="214" type="line" smooth="yes"/>
      <point x="94" y="169"/>
      <point x="102" y="137"/>
      <point x="117" y="118" type="curve"/>
      <point x="125" y="107"/>
      <point x="139" y="94"/>
      <point x="175" y="94" type="curve" smooth="yes"/>
      <point x="182" y="94" type="line"/>
      <point x="111" y="182" type="line"/>
      <point x="156" y="182" type="line"/>
      <point x="243" y="79" type="line"/>
      <point x="226" y="66"/>
      <point x="203" y="59"/>
      <point x="175" y="59" type="curve" smooth="yes"/>
      <point x="98" y="59"/>
      <point x="59" y="111"/>
      <point x="59" y="214" type="curve" smooth="yes"/>
      <point x="59" y="530" type="line" smooth="yes"/>
      <point x="59" y="631"/>
      <point x="95" y="678"/>
      <point x="175" y="678" type="curve" smooth="yes"/>
      <point x="255" y="678"/>
      <point x="290" y="631"/>
      <point x="290" y="530" type="curve" smooth="yes"/>
      <point x="290" y="214" type="line" smooth="yes"/>
      <point x="290" y="160"/>
      <point x="280" y="120"/>
      <point x="259" y="95" type="curve"/>
      <point x="187" y="182" type="line"/>
      <point x="229" y="182" type="line"/>
    </contour>
  </outline>
</glyph>
<glyph name="S" format="1">
  <advance width="397"/>
  <unicode hex="0053"/>
  <outline>
    <contour>
      <point x="331" y="313"/>
      <point x="352" y="264"/>
      <point x="352" y="204" type="curve" smooth="yes"/>
      <point x="352" y="91"/>
      <point x="289" y="0"/>
      <point x="176" y="0" type="curve" smooth="yes"/>
      <point x="59" y="0"/>
      <point x="0" y="77"/>
      <point x="0" y="209" type="curve" smooth="yes"/>
      <point x="0" y="256" type="line"/>
      <point x="35" y="256" type="line"/>
      <point x="35" y="209" type="line" smooth="yes"/>
      <point x="35" y="94"/>
      <point x="83" y="35"/>
      <point x="176" y="35" type="curve" smooth="yes"/>
      <point x="220" y="35"/>
      <point x="257" y="52"/>
      <point x="281" y="85" type="curve"/>
      <point x="304" y="114"/>
      <point x="316" y="156"/>
      <point x="316" y="204" type="curve" smooth="yes"/>
      <point x="316" y="261"/>
      <point x="293" y="300"/>
      <point x="266" y="325" type="curve" smooth="yes"/>
      <point x="238" y="350"/>
      <point x="206" y="363"/>
      <point x="189" y="370" type="curve" smooth="yes"/>
      <point x="173" y="377" type="line" smooth="yes"/>
      <point x="154" y="385"/>
      <point x="126" y="397"/>
      <point x="102" y="421" type="curve" smooth="yes"/>
      <point x="78" y="444"/>
      <point x="59" y="477"/>
      <point x="59" y="526" type="curve" smooth="yes"/>
      <point x="59" y="561"/>
      <point x="66" y="599"/>
      <point x="85" y="628" type="curve" smooth="yes"/>
      <point x="104" y="657"/>
      <point x="133" y="678"/>
      <point x="176" y="678" type="curve" smooth="yes"/>
      <point x="253" y="678"/>
      <point x="293" y="630"/>
      <point x="293" y="526" type="curve" smooth="yes"/>
      <point x="293" y="479" type="line"/>
      <point x="257" y="479" type="line"/>
      <point x="257" y="526" type="line" smooth="yes"/>
      <point x="257" y="583"/>
      <point x="244" y="614"/>
      <point x="227" y="628" type="curve" smooth="yes"/>
      <point x="210" y="642"/>
      <point x="189" y="642"/>
      <point x="176" y="642" type="curve" smooth="yes"/>
      <point x="137" y="642"/>
      <point x="118" y="621"/>
      <point x="107" y="595" type="curve" smooth="yes"/>
      <point x="95" y="569"/>
      <point x="94" y="539"/>
      <point x="94" y="526" type="curve" smooth="yes"/>
      <point x="94" y="491"/>
      <point x="106" y="468"/>
      <point x="123" y="450" type="curve" smooth="yes"/>
      <point x="140" y="432"/>
      <point x="163" y="419"/>
      <point x="187" y="410" type="curve"/>
      <point x="203" y="403" type="line" smooth="yes"/>
      <point x="222" y="395"/>
      <point x="258" y="382"/>
      <point x="290" y="351" type="curve" smooth="yes"/>
    </contour>
    <contour>
      <point x="20" y="417"/>
      <point x="0" y="466"/>
      <point x="0" y="526" type="curve" smooth="yes"/>
      <point x="0" y="589"/>
      <point x="17" y="642"/>
      <point x="49" y="679" type="curve" smooth="yes"/>
      <point x="80" y="715"/>
      <point x="124" y="737"/>
      <point x="176" y="737" type="curve" smooth="yes"/>
      <point x="248" y="737"/>
      <point x="288" y="706"/>
      <point x="309" y="679" type="curve" smooth="yes"/>
      <point x="338" y="642"/>
      <point x="352" y="591"/>
      <point x="352" y="526" type="curve" smooth="yes"/>
      <point x="352" y="479" type="line"/>
      <point x="316" y="479" type="line"/>
      <point x="316" y="526" type="line" smooth="yes"/>
      <point x="316" y="643"/>
      <point x="269" y="701"/>
      <point x="176" y="701" type="curve" smooth="yes"/>
      <point x="85" y="701"/>
      <point x="35" y="627"/>
      <point x="35" y="526" type="curve" smooth="yes"/>
      <point x="35" y="469"/>
      <point x="57" y="430"/>
      <point x="85" y="404" type="curve" smooth="yes"/>
      <point x="112" y="378"/>
      <point x="144" y="364"/>
      <point x="163" y="356" type="curve"/>
      <point x="180" y="348" type="line"/>
      <point x="197" y="341"/>
      <point x="225" y="331"/>
      <point x="249" y="309" type="curve" smooth="yes"/>
      <point x="273" y="287"/>
      <point x="293" y="253"/>
      <point x="293" y="204" type="curve" smooth="yes"/>
      <point x="293" y="112"/>
      <point x="249" y="59"/>
      <point x="176" y="59" type="curve" smooth="yes"/>
      <point x="97" y="59"/>
      <point x="59" y="105"/>
      <point x="59" y="209" type="curve" smooth="yes"/>
      <point x="59" y="256" type="line"/>
      <point x="94" y="256" type="line"/>
      <point x="94" y="209" type="line" smooth="yes"/>
      <point x="94" y="166"/>
      <point x="102" y="135"/>
      <point x="117" y="116" type="curve"/>
      <point x="120" y="111"/>
      <point x="126" y="107"/>
      <point x="135" y="102" type="curve" smooth="yes"/>
      <point x="144" y="97"/>
      <point x="157" y="94"/>
      <point x="176" y="94" type="curve" smooth="yes"/>
      <point x="212" y="94"/>
      <point x="232" y="112"/>
      <point x="244" y="134" type="curve"/>
      <point x="255" y="156"/>
      <point x="257" y="184"/>
      <point x="257" y="204" type="curve" smooth="yes"/>
      <point x="257" y="239"/>
      <point x="245" y="262"/>
      <point x="228" y="279" type="curve" smooth="yes"/>
      <point x="211" y="295"/>
      <point x="188" y="306"/>
      <point x="167" y="315" type="curve" smooth="yes"/>
      <point x="149" y="323" type="line" smooth="yes"/>
      <point x="128" y="332"/>
      <point x="92" y="347"/>
      <point x="60" y="378" type="curve" smooth="yes"/>
    </contour>
  </outline>
</glyph>
<glyph name="T" format="1">
  <advance width="461"/>
  <unicode hex="0054"/>
  <outline>
    <contour>
      <point x="187" y="701" type="line"/>
      <point x="-10" y="701" type="line"/>
      <point x="-10" y="737" type="line"/>
      <point x="407" y="737" type="line"/>
      <point x="407" y="701" type="line"/>
      <point x="210" y="701" type="line"/>
    </contour>
    <contour>
      <point x="187" y="0" type="line"/>
      <point x="151" y="0" type="line"/>
      <point x="151" y="642" type="line"/>
      <point x="-10" y="642" type="line"/>
      <point x="-10" y="678" type="line"/>
      <point x="187" y="678" type="line"/>
    </contour>
    <contour>
      <point x="210" y="678" type="line"/>
      <point x="407" y="678" type="line"/>
      <point x="407" y="642" type="line"/>
      <point x="246" y="642" type="line"/>
      <point x="246" y="0" type="line"/>
      <point x="210" y="0" type="line"/>
      <point x="210" y="35" type="line"/>
    </contour>
  </outline>
</glyph>
<glyph name="V" format="1">
  <advance width="461"/>
  <unicode hex="0056"/>
  <outline>
    <contour>
      <point x="380" y="737" type="line"/>
      <point x="220" y="96" type="line"/>
      <point x="60" y="737" type="line"/>
      <point x="97" y="737" type="line"/>
      <point x="220" y="242" type="line"/>
      <point x="345" y="737" type="line"/>
    </contour>
    <contour>
      <point x="405" y="737" type="line"/>
      <point x="442" y="737" type="line"/>
      <point x="257" y="0" type="line"/>
      <point x="248" y="0" type="line"/>
      <point x="221" y="0" type="line"/>
      <point x="220" y="0" type="line"/>
      <point x="192" y="0" type="line"/>
      <point x="183" y="0" type="line"/>
      <point x="0" y="737" type="line"/>
      <point x="35" y="737" type="line"/>
      <point x="210" y="39" type="line"/>
      <point x="230" y="39" type="line"/>
    </contour>
  </outline>
</glyph>
<glyph name="W" format="1">
  <advance width="720"/>
  <unicode hex="0057"/>
  <outline>
    <contour>
      <point x="332" y="698" type="line"/>
      <point x="201" y="102" type="line"/>
      <point x="61" y="737" type="line"/>
      <point x="97" y="737" type="line"/>
      <point x="201" y="266" type="line"/>
      <point x="305" y="737" type="line"/>
      <point x="317" y="737" type="line"/>
      <point x="341" y="737" type="line"/>
      <point x="344" y="737" type="line"/>
      <point x="374" y="737" type="line"/>
      <point x="381" y="737" type="line"/>
      <point x="484" y="266" type="line"/>
      <point x="588" y="737" type="line"/>
      <point x="624" y="737" type="line"/>
      <point x="484" y="102" type="line"/>
      <point x="353" y="698" type="line"/>
    </contour>
    <contour>
      <point x="648" y="737" type="line"/>
      <point x="685" y="737" type="line"/>
      <point x="522" y="0" type="line"/>
      <point x="514" y="0" type="line"/>
      <point x="486" y="0" type="line"/>
      <point x="483" y="0" type="line"/>
      <point x="457" y="0" type="line"/>
      <point x="446" y="0" type="line"/>
      <point x="343" y="470" type="line"/>
      <point x="239" y="0" type="line"/>
      <point x="229" y="0" type="line"/>
      <point x="203" y="0" type="line"/>
      <point x="199" y="0" type="line"/>
      <point x="172" y="0" type="line"/>
      <point x="163" y="0" type="line"/>
      <point x="0" y="737" type="line"/>
      <point x="37" y="737" type="line"/>
      <point x="191" y="39" type="line"/>
      <point x="211" y="39" type="line"/>
      <point x="343" y="635" type="line"/>
      <point x="474" y="39" type="line"/>
      <point x="495" y="39" type="line"/>
    </contour>
  </outline>
</glyph>
<glyph name="backslash" format="1">
  <advance width="384"/>
  <unicode hex="005C"/>
  <outline>
    <contour>
      <point x="101" y="738" type="line"/>
      <point x="374" y="1" type="line"/>
      <point x="337" y="1" type="line"/>
      <point x="61" y="738" type="line"/>
    </contour>
    <contour>
      <point x="312" y="1" type="line"/>
      <point x="273" y="1" type="line"/>
      <point x="0" y="738" type="line"/>
      <point x="36" y="738" type="line"/>
    </contour>
  </outline>
</glyph>
<glyph name="c" format="1">
  <advance width="409"/>
  <unicode hex="0063"/>
  <outline>
    <contour>
      <point x="314" y="480" type="line"/>
      <point x="314" y="527" type="line" smooth="yes"/>
      <point x="314" y="642"/>
      <point x="267" y="701"/>
      <point x="175" y="701" type="curve" smooth="yes"/>
      <point x="129" y="701"/>
      <point x="94" y="686"/>
      <point x="70" y="657" type="curve"/>
      <point x="47" y="626"/>
      <point x="35" y="583"/>
      <point x="35" y="527" type="curve" smooth="yes"/>
      <point x="35" y="210" type="line" smooth="yes"/>
      <point x="35" y="138"/>
      <point x="54" y="93"/>
      <point x="81" y="68" type="curve" smooth="yes"/>
      <point x="108" y="43"/>
      <point x="143" y="35"/>
      <point x="175" y="35" type="curve" smooth="yes"/>
      <point x="207" y="35"/>
      <point x="241" y="43"/>
      <point x="268" y="68" type="curve" smooth="yes"/>
      <point x="295" y="93"/>
      <point x="314" y="138"/>
      <point x="314" y="210" type="curve" smooth="yes"/>
      <point x="314" y="258" type="line"/>
      <point x="350" y="258" type="line"/>
      <point x="350" y="210" type="line" smooth="yes"/>
      <point x="350" y="145"/>
      <point x="336" y="95"/>
      <point x="307" y="59" type="curve" smooth="yes"/>
      <point x="286" y="32"/>
      <point x="247" y="0"/>
      <point x="175" y="0" type="curve" smooth="yes"/>
      <point x="139" y="0"/>
      <point x="112" y="8"/>
      <point x="90" y="20" type="curve"/>
      <point x="68" y="31"/>
      <point x="53" y="46"/>
      <point x="42" y="59" type="curve" smooth="yes"/>
      <point x="14" y="94"/>
      <point x="0" y="144"/>
      <point x="0" y="210" type="curve" smooth="yes"/>
      <point x="0" y="527" type="line" smooth="yes"/>
      <point x="0" y="592"/>
      <point x="14" y="643"/>
      <point x="42" y="678" type="curve" smooth="yes"/>
      <point x="53" y="691"/>
      <point x="68" y="706"/>
      <point x="90" y="718" type="curve"/>
      <point x="112" y="729"/>
      <point x="139" y="737"/>
      <point x="175" y="737" type="curve" smooth="yes"/>
      <point x="247" y="737"/>
      <point x="286" y="705"/>
      <point x="307" y="678" type="curve" smooth="yes"/>
      <point x="336" y="642"/>
      <point x="350" y="592"/>
      <point x="350" y="527" type="curve" smooth="yes"/>
      <point x="350" y="480" type="line"/>
    </contour>
    <contour>
      <point x="252" y="678"/>
      <point x="291" y="628"/>
      <point x="291" y="527" type="curve" smooth="yes"/>
      <point x="291" y="480" type="line"/>
      <point x="255" y="480" type="line"/>
      <point x="255" y="527" type="line" smooth="yes"/>
      <point x="255" y="584"/>
      <point x="242" y="614"/>
      <point x="226" y="628" type="curve" smooth="yes"/>
      <point x="209" y="642"/>
      <point x="188" y="642"/>
      <point x="175" y="642" type="curve" smooth="yes"/>
      <point x="160" y="642"/>
      <point x="141" y="642"/>
      <point x="124" y="628" type="curve" smooth="yes"/>
      <point x="107" y="614"/>
      <point x="94" y="584"/>
      <point x="94" y="527" type="curve" smooth="yes"/>
      <point x="94" y="210" type="line" smooth="yes"/>
      <point x="94" y="167"/>
      <point x="102" y="136"/>
      <point x="117" y="117" type="curve"/>
      <point x="124" y="106"/>
      <point x="139" y="94"/>
      <point x="175" y="94" type="curve" smooth="yes"/>
      <point x="211" y="94"/>
      <point x="225" y="106"/>
      <point x="233" y="117" type="curve"/>
      <point x="248" y="136"/>
      <point x="255" y="167"/>
      <point x="255" y="210" type="curve" smooth="yes"/>
      <point x="255" y="258" type="line"/>
      <point x="291" y="258" type="line"/>
      <point x="291" y="210" type="line" smooth="yes"/>
      <point x="291" y="109"/>
      <point x="252" y="59"/>
      <point x="175" y="59" type="curve" smooth="yes"/>
      <point x="98" y="59"/>
      <point x="59" y="109"/>
      <point x="59" y="210" type="curve" smooth="yes"/>
      <point x="59" y="527" type="line" smooth="yes"/>
      <point x="59" y="628"/>
      <point x="98" y="678"/>
      <point x="175" y="678" type="curve" smooth="yes"/>
    </contour>
  </outline>
</glyph>
<glyph name="g" format="1">
  <advance width="413"/>
  <unicode hex="0067"/>
  <outline>
    <contour>
      <point x="256" y="482" type="line"/>
      <point x="256" y="529" type="line" smooth="yes"/>
      <point x="256" y="582"/>
      <point x="246" y="610"/>
      <point x="231" y="626" type="curve"/>
      <point x="215" y="641"/>
      <point x="195" y="643"/>
      <point x="175" y="643" type="curve" smooth="yes"/>
      <point x="155" y="643"/>
      <point x="135" y="641"/>
      <point x="120" y="626" type="curve" smooth="yes"/>
      <point x="104" y="610"/>
      <point x="94" y="582"/>
      <point x="94" y="529" type="curve" smooth="yes"/>
      <point x="94" y="211" type="line" smooth="yes"/>
      <point x="94" y="152"/>
      <point x="107" y="124"/>
      <point x="124" y="110" type="curve" smooth="yes"/>
      <point x="141" y="96"/>
      <point x="160" y="95"/>
      <point x="175" y="95" type="curve" smooth="yes"/>
      <point x="190" y="95"/>
      <point x="210" y="96"/>
      <point x="227" y="110" type="curve" smooth="yes"/>
      <point x="243" y="124"/>
      <point x="256" y="152"/>
      <point x="256" y="211" type="curve" smooth="yes"/>
      <point x="256" y="267" type="line"/>
      <point x="142" y="267" type="line"/>
      <point x="142" y="302" type="line"/>
      <point x="292" y="302" type="line"/>
      <point x="292" y="211" type="line" smooth="yes"/>
      <point x="292" y="158"/>
      <point x="282" y="120"/>
      <point x="262" y="96" type="curve"/>
      <point x="244" y="72"/>
      <point x="215" y="60"/>
      <point x="175" y="60" type="curve" smooth="yes"/>
      <point x="136" y="60"/>
      <point x="107" y="72"/>
      <point x="89" y="96" type="curve"/>
      <point x="69" y="120"/>
      <point x="59" y="158"/>
      <point x="59" y="211" type="curve" smooth="yes"/>
      <point x="59" y="529" type="line" smooth="yes"/>
      <point x="59" y="633"/>
      <point x="98" y="679"/>
      <point x="175" y="679" type="curve" smooth="yes"/>
      <point x="252" y="679"/>
      <point x="292" y="633"/>
      <point x="292" y="529" type="curve" smooth="yes"/>
      <point x="292" y="482" type="line"/>
    </contour>
    <contour>
      <point x="316" y="482" type="line"/>
      <point x="316" y="529" type="line" smooth="yes"/>
      <point x="316" y="642"/>
      <point x="270" y="702"/>
      <point x="175" y="702" type="curve" smooth="yes"/>
      <point x="82" y="702"/>
      <point x="35" y="642"/>
      <point x="35" y="529" type="curve" smooth="yes"/>
      <point x="35" y="211" type="line" smooth="yes"/>
      <point x="35" y="96"/>
      <point x="83" y="36"/>
      <point x="175" y="36" type="curve" smooth="yes"/>
      <point x="268" y="36"/>
      <point x="316" y="96"/>
      <point x="316" y="211" type="curve" smooth="yes"/>
      <point x="316" y="326" type="line"/>
      <point x="142" y="326" type="line"/>
      <point x="142" y="361" type="line"/>
      <point x="351" y="361" type="line"/>
      <point x="351" y="211" type="line" smooth="yes"/>
      <point x="351" y="145"/>
      <point x="337" y="94"/>
      <point x="308" y="59" type="curve" smooth="yes"/>
      <point x="287" y="32"/>
      <point x="247" y="1"/>
      <point x="175" y="1" type="curve" smooth="yes"/>
      <point x="103" y="1"/>
      <point x="64" y="32"/>
      <point x="43" y="59" type="curve" smooth="yes"/>
      <point x="14" y="94"/>
      <point x="0" y="145"/>
      <point x="0" y="211" type="curve" smooth="yes"/>
      <point x="0" y="529" type="line" smooth="yes"/>
      <point x="0" y="660"/>
      <point x="59" y="738"/>
      <point x="175" y="738" type="curve" smooth="yes"/>
      <point x="292" y="738"/>
      <point x="351" y="660"/>
      <point x="351" y="529" type="curve" smooth="yes"/>
      <point x="351" y="482" type="line"/>
    </contour>
  </outline>
</glyph>
<glyph name="h" format="1">
  <advance width="409"/>
  <unicode hex="0068"/>
  <outline>
    <contour>
      <point x="35" y="357" type="line"/>
      <point x="35" y="1" type="line"/>
      <point x="0" y="1" type="line"/>
      <point x="0" y="738" type="line"/>
      <point x="35" y="738" type="line"/>
      <point x="35" y="381" type="line"/>
    </contour>
    <contour>
      <point x="59" y="738" type="line"/>
      <point x="94" y="738" type="line"/>
      <point x="94" y="416" type="line"/>
      <point x="236" y="416" type="line"/>
      <point x="236" y="738" type="line"/>
      <point x="272" y="738" type="line"/>
      <point x="272" y="381" type="line"/>
      <point x="59" y="381" type="line"/>
    </contour>
    <contour>
      <point x="272" y="1" type="line"/>
      <point x="236" y="1" type="line"/>
      <point x="236" y="322" type="line"/>
      <point x="94" y="322" type="line"/>
      <point x="94" y="1" type="line"/>
      <point x="59" y="1" type="line"/>
      <point x="59" y="357" type="line"/>
      <point x="272" y="357" type="line"/>
    </contour>
    <contour>
      <point x="295" y="738" type="line"/>
      <point x="331" y="738" type="line"/>
      <point x="331" y="1" type="line"/>
      <point x="295" y="1" type="line"/>
      <point x="295" y="357" type="line"/>
      <point x="295" y="381" type="line"/>
    </contour>
  </outline>
</glyph>
<glyph name="m" format="1">
  <advance width="538"/>
  <unicode hex="006D"/>
  <outline>
    <contour>
      <point x="59" y="607" type="line"/>
      <point x="232" y="5" type="line"/>
      <point x="404" y="607" type="line"/>
      <point x="404" y="1" type="line"/>
      <point x="369" y="1" type="line"/>
      <point x="369" y="354" type="line"/>
      <point x="267" y="1" type="line"/>
      <point x="196" y="1" type="line"/>
      <point x="94" y="354" type="line"/>
      <point x="94" y="1" type="line"/>
      <point x="59" y="1" type="line"/>
    </contour>
    <contour>
      <point x="444" y="738" type="line"/>
      <point x="463" y="738" type="line"/>
      <point x="463" y="1" type="line"/>
      <point x="428" y="1" type="line"/>
      <point x="428" y="702" type="line"/>
      <point x="407" y="702" type="line"/>
      <point x="232" y="91" type="line"/>
      <point x="56" y="702" type="line"/>
      <point x="35" y="702" type="line"/>
      <point x="35" y="1" type="line"/>
      <point x="0" y="1" type="line"/>
      <point x="0" y="738" type="line"/>
      <point x="11" y="738" type="line"/>
      <point x="35" y="738" type="line"/>
      <point x="46" y="738" type="line"/>
      <point x="68" y="738" type="line"/>
      <point x="83" y="738" type="line"/>
      <point x="232" y="219" type="line"/>
      <point x="380" y="738" type="line"/>
      <point x="388" y="738" type="line"/>
      <point x="417" y="738" type="line"/>
      <point x="428" y="738" type="line"/>
    </contour>
  </outline>
</glyph>
<glyph name="p" format="1">
  <advance width="384"/>
  <unicode hex="0070"/>
  <outline>
    <contour>
      <point x="282" y="427"/>
      <point x="244" y="383"/>
      <point x="153" y="383" type="curve" smooth="yes"/>
      <point x="59" y="383" type="line"/>
      <point x="59" y="680" type="line"/>
      <point x="153" y="680" type="line" smooth="yes"/>
      <point x="244" y="680"/>
      <point x="282" y="637"/>
      <point x="282" y="532" type="curve" smooth="yes"/>
    </contour>
    <contour>
      <point x="94" y="418" type="line"/>
      <point x="153" y="418" type="line" smooth="yes"/>
      <point x="179" y="418"/>
      <point x="197" y="421"/>
      <point x="206" y="427" type="curve" smooth="yes"/>
      <point x="215" y="433"/>
      <point x="221" y="438"/>
      <point x="224" y="441" type="curve"/>
      <point x="239" y="458"/>
      <point x="246" y="488"/>
      <point x="246" y="532" type="curve" smooth="yes"/>
      <point x="246" y="580"/>
      <point x="238" y="608"/>
      <point x="223" y="624" type="curve" smooth="yes"/>
      <point x="207" y="640"/>
      <point x="184" y="645"/>
      <point x="153" y="645" type="curve" smooth="yes"/>
      <point x="94" y="645" type="line"/>
    </contour>
    <contour>
      <point x="35" y="2" type="line"/>
      <point x="0" y="2" type="line"/>
      <point x="0" y="680" type="line"/>
      <point x="35" y="680" type="line"/>
    </contour>
    <contour>
      <point x="326" y="650"/>
      <point x="341" y="599"/>
      <point x="341" y="532" type="curve" smooth="yes"/>
      <point x="341" y="397"/>
      <point x="280" y="324"/>
      <point x="153" y="324" type="curve" smooth="yes"/>
      <point x="94" y="324" type="line"/>
      <point x="94" y="2" type="line"/>
      <point x="59" y="2" type="line"/>
      <point x="59" y="359" type="line"/>
      <point x="153" y="359" type="line" smooth="yes"/>
      <point x="257" y="359"/>
      <point x="305" y="413"/>
      <point x="305" y="532" type="curve" smooth="yes"/>
      <point x="305" y="649"/>
      <point x="257" y="704"/>
      <point x="153" y="704" type="curve" smooth="yes"/>
      <point x="57" y="704" type="line"/>
      <point x="35" y="704" type="line"/>
      <point x="0" y="704" type="line"/>
      <point x="0" y="739" type="line"/>
      <point x="153" y="739" type="line" smooth="yes"/>
      <point x="216" y="739"/>
      <point x="264" y="721"/>
      <point x="296" y="684" type="curve" smooth="yes"/>
    </contour>
  </outline>
</glyph>
